<svg data-v-fde0c5aa="" xmlns="http://www.w3.org/2000/svg" viewBox="0 0 300 300" class="iconLeft"><!----><defs data-v-fde0c5aa=""><!----></defs><rect data-v-fde0c5aa="" fill="#F2F6EF" x="0" y="0" width="300px" height="300px" class="logo-background-square"></rect><defs data-v-fde0c5aa=""><!----></defs><g data-v-fde0c5aa="" id="4c785ce3-3d36-47b0-be47-6408e90be717" fill="#2D3826" transform="matrix(1.2999326083639635,0,0,1.2999326083639635,69.45588220054726,140.23750581365567)"><path d="M0.38 3.08L0.42 3.64L1.01 3.64C1.69 3.64 1.72 3.67 1.72 4.14L1.72 11.26C1.72 11.82 1.69 11.87 0.99 11.87L0.62 11.87L0.63 12.42L4.24 12.42C8.68 12.42 9.80 9.31 9.80 7.39C9.80 5.91 9.17 4.47 7.85 3.70C6.83 3.11 5.64 3.08 4.16 3.08ZM2.86 11.23L2.86 4.40C2.86 3.81 2.98 3.74 3.43 3.74L3.95 3.74C7.21 3.74 8.54 5.85 8.54 7.83C8.54 9.70 7.64 11.87 4.05 11.87C2.88 11.87 2.86 11.82 2.86 11.23ZM11.84 4.10C11.84 4.27 12.18 4.73 12.43 4.73C12.59 4.73 13.03 4.31 13.03 4.12C13.03 3.89 12.59 3.51 12.43 3.51C12.25 3.51 11.84 3.88 11.84 4.10ZM10.79 7.15L10.81 7.57C11.24 7.49 11.51 7.46 11.58 7.46C11.73 7.46 11.79 7.55 11.79 7.91L11.79 11.65C11.79 11.94 11.68 11.97 10.98 11.97L10.85 11.97L10.85 12.42L13.89 12.42L13.89 11.97L13.64 11.97C12.81 11.97 12.77 11.93 12.77 11.59L12.77 6.73C12.00 6.94 11.41 7.06 10.79 7.15ZM14.15 7.38C14.70 7.38 14.74 7.41 15.06 8.13L17.04 12.66L17.23 12.67L18.87 9.03C19.54 7.53 19.57 7.38 20.05 7.38L20.13 7.38L20.13 6.93L18.20 6.93L18.20 7.38L18.24 7.38C18.66 7.38 18.86 7.38 18.86 7.59C18.86 7.76 18.76 7.99 18.58 8.39C18.33 8.93 17.92 9.76 17.39 11.03L16.14 8.06C16.04 7.81 15.99 7.67 15.99 7.57C15.99 7.39 16.16 7.38 16.46 7.38L16.66 7.38L16.67 6.93L14.15 6.93ZM21.80 4.10C21.80 4.27 22.13 4.73 22.39 4.73C22.54 4.73 22.99 4.31 22.99 4.12C22.99 3.89 22.54 3.51 22.39 3.51C22.20 3.51 21.80 3.88 21.80 4.10ZM20.75 7.15L20.76 7.57C21.20 7.49 21.46 7.46 21.53 7.46C21.69 7.46 21.74 7.55 21.74 7.91L21.74 11.65C21.74 11.94 21.63 11.97 20.93 11.97L20.80 11.97L20.80 12.42L23.84 12.42L23.84 11.97L23.59 11.97C22.76 11.97 22.72 11.93 22.72 11.59L22.72 6.73C21.95 6.94 21.36 7.06 20.75 7.15ZM24.32 11.97L24.33 12.42L27.06 12.42L27.09 11.97L26.91 11.97C26.07 11.97 26.07 11.93 26.07 11.49L26.07 8.12C26.07 8.12 26.91 7.67 27.58 7.67C28.21 7.67 28.49 7.94 28.49 8.74L28.49 11.55C28.49 11.94 28.41 11.97 28.01 11.97L27.69 11.97L27.71 12.42L30.31 12.42L30.32 11.97C29.67 11.97 29.47 11.97 29.47 11.55L29.47 9.14C29.47 8.04 29.46 6.89 28.14 6.89C27.02 6.89 26.25 7.69 26.03 7.78C26.03 7.27 26.04 7.13 26.07 6.79L24.35 7.14L24.35 7.57C24.72 7.49 24.77 7.46 24.88 7.46C25.07 7.46 25.09 7.59 25.09 8.16L25.09 11.49C25.09 11.94 25.09 11.97 24.46 11.97ZM30.76 9.86C30.76 10.93 31.35 12.60 33.32 12.60C34.83 12.60 35.87 11.42 35.87 11.16C35.87 11.03 35.81 10.99 35.74 10.99C35.50 10.99 34.99 11.65 33.88 11.65C32.70 11.65 31.81 10.86 31.81 9.45C31.81 9.38 31.82 9.30 31.82 9.25L35.34 8.83C35.39 8.83 35.56 8.78 35.56 8.62C35.56 8.13 34.76 6.83 33.24 6.83C31.85 6.83 30.76 8.04 30.76 9.86ZM31.85 8.76C32.00 7.84 32.54 7.31 33.10 7.31C33.87 7.31 34.26 8.46 34.26 8.46ZM36.82 8.02C36.82 10.85 38.67 12.64 41.90 12.64C43.96 12.64 45.63 11.45 45.63 11.45L45.71 9.41L45.22 9.41L45.18 10.58C45.16 11.00 43.68 12.03 42.25 12.03C39.77 12.03 38.01 9.84 38.01 7.62C38.01 5.50 39.58 3.71 41.93 3.71C42.88 3.71 43.85 3.93 44.25 4.14C45.12 4.58 44.94 4.27 45.11 5.66L45.61 5.64C45.53 4.75 45.47 3.85 45.44 2.97L44.91 2.97C44.90 3.40 44.93 3.49 44.69 3.49C44.46 3.49 43.95 3.05 41.89 3.05C39.65 3.05 36.82 4.66 36.82 8.02ZM46.76 11.51C46.76 12.26 47.46 12.57 48.05 12.57C48.66 12.57 49.32 12.17 49.69 11.68C49.98 12.04 50.13 12.31 50.62 12.66C50.67 12.64 51.14 12.36 51.46 12.15C51.56 12.10 51.59 12.04 51.59 12.00C51.59 11.96 51.56 11.91 51.46 11.89C50.65 11.66 50.55 11.21 50.55 10.61L50.55 7.99C50.55 6.97 49.64 6.87 49.32 6.87C47.31 6.87 46.87 8.13 46.87 8.44C46.87 8.61 46.91 8.95 47.19 8.95C47.31 8.95 47.64 8.81 47.64 8.58C47.64 8.43 47.56 8.22 47.50 7.97C47.50 7.97 47.66 7.53 48.64 7.53C49.49 7.53 49.57 7.98 49.57 8.53L49.57 9.37C47.99 9.37 46.76 10.36 46.76 11.51ZM47.74 11.10C47.74 10.49 48.41 9.74 49.57 9.74L49.57 11.05C49.57 11.35 49.41 11.82 48.58 11.82C47.96 11.82 47.74 11.48 47.74 11.10ZM51.94 7.20L51.98 7.63C52.28 7.57 52.71 7.48 52.84 7.48C53.00 7.48 53.03 7.60 53.03 7.98L53.03 11.40C53.03 11.94 52.99 11.97 52.42 11.97L52.15 11.97L52.15 12.42L55.50 12.42L55.50 11.97L54.89 11.97C54.08 11.97 54.01 11.91 54.01 11.40L54.01 9.03C54.01 8.48 54.71 8.04 55.16 8.04C55.36 8.04 55.50 8.13 55.50 8.36L55.50 8.54L55.72 8.62L56.25 7.24C56.25 7.24 56.07 6.89 55.48 6.89C54.67 6.89 54.03 8.26 53.98 8.32L53.98 6.73C52.22 7.17 52.53 7.08 51.94 7.20ZM56.83 9.86C56.83 10.93 57.41 12.60 59.39 12.60C60.90 12.60 61.94 11.42 61.94 11.16C61.94 11.03 61.88 10.99 61.81 10.99C61.57 10.99 61.05 11.65 59.95 11.65C58.77 11.65 57.88 10.86 57.88 9.45C57.88 9.38 57.89 9.30 57.89 9.25L61.40 8.83C61.46 8.83 61.63 8.78 61.63 8.62C61.63 8.13 60.83 6.83 59.30 6.83C57.92 6.83 56.83 8.04 56.83 9.86ZM57.92 8.76C58.07 7.84 58.60 7.31 59.16 7.31C59.93 7.31 60.33 8.46 60.33 8.46ZM62.65 12.42L66.37 12.42L66.37 11.87L65.67 11.87C64.74 11.87 64.72 11.83 64.72 11.47L64.72 8.44C64.75 8.44 65.69 8.74 66.70 8.74C68.71 8.74 69.65 7.42 69.65 6.19C69.65 5.07 69.13 4.23 68.46 3.68C67.80 3.15 67.03 3.08 65.59 3.08L62.71 3.08L62.69 3.64L63.06 3.64C63.50 3.64 63.59 3.67 63.59 4.14L63.59 11.47C63.59 11.83 63.57 11.87 63.08 11.87L62.65 11.87ZM64.72 8.02L64.72 4.28C64.72 3.70 64.82 3.64 65.14 3.64C66.88 3.64 68.33 4.51 68.33 6.16C68.33 7.56 67.51 8.29 66.04 8.29C65.09 8.29 64.72 8.02 64.72 8.02ZM70.52 11.97L70.53 12.42L73.25 12.42L73.26 11.97L73.01 11.97C72.44 11.97 72.30 11.94 72.30 11.65L72.30 8.34C72.30 8.34 73.05 7.67 73.77 7.67C74.19 7.67 74.72 7.91 74.72 8.74L74.72 11.58C74.72 11.94 74.58 11.97 74.05 11.97L73.82 11.97L73.84 12.42L76.52 12.42L76.52 11.97L76.30 11.97C75.73 11.97 75.70 11.94 75.70 11.56L75.70 9.14C75.70 8.04 75.67 6.89 74.35 6.89C73.46 6.89 72.66 7.63 72.30 7.92L72.30 2.25C71.48 2.38 70.95 2.46 70.52 2.51L70.52 3.00C70.69 2.97 71.01 2.91 71.09 2.91C71.25 2.91 71.32 3.00 71.32 3.33L71.32 11.65C71.32 11.96 71.15 11.97 70.67 11.97ZM77.14 11.51C77.14 12.26 77.84 12.57 78.43 12.57C79.04 12.57 79.70 12.17 80.07 11.68C80.36 12.04 80.51 12.31 81.00 12.66C81.05 12.64 81.52 12.36 81.84 12.15C81.94 12.10 81.97 12.04 81.97 12.00C81.97 11.96 81.94 11.91 81.84 11.89C81.03 11.66 80.93 11.21 80.93 10.61L80.93 7.99C80.93 6.97 80.02 6.87 79.70 6.87C77.69 6.87 77.25 8.13 77.25 8.44C77.25 8.61 77.29 8.95 77.57 8.95C77.69 8.95 78.02 8.81 78.02 8.58C78.02 8.43 77.94 8.22 77.88 7.97C77.88 7.97 78.04 7.53 79.02 7.53C79.87 7.53 79.95 7.98 79.95 8.53L79.95 9.37C78.37 9.37 77.14 10.36 77.14 11.51ZM78.12 11.10C78.12 10.49 78.79 9.74 79.95 9.74L79.95 11.05C79.95 11.35 79.79 11.82 78.96 11.82C78.34 11.82 78.12 11.48 78.12 11.10ZM82.32 7.20L82.36 7.63C82.66 7.57 83.09 7.48 83.22 7.48C83.38 7.48 83.41 7.60 83.41 7.98L83.41 11.40C83.41 11.94 83.37 11.97 82.80 11.97L82.53 11.97L82.53 12.42L85.88 12.42L85.88 11.97L85.27 11.97C84.46 11.97 84.39 11.91 84.39 11.40L84.39 9.03C84.39 8.48 85.09 8.04 85.54 8.04C85.74 8.04 85.88 8.13 85.88 8.36L85.88 8.54L86.10 8.62L86.63 7.24C86.63 7.24 86.45 6.89 85.86 6.89C85.05 6.89 84.41 8.26 84.36 8.32L84.36 6.73C82.60 7.17 82.91 7.08 82.32 7.20ZM87.11 7.60C87.49 7.53 87.72 7.46 87.86 7.46C88.09 7.46 88.09 7.63 88.09 8.20L88.09 11.66C88.09 11.94 87.98 11.97 87.53 11.97L87.14 11.97L87.15 12.42L89.88 12.42L89.88 11.97L89.81 11.97C89.08 11.97 89.07 11.94 89.07 11.66L89.07 8.12C89.07 8.12 89.70 7.67 90.37 7.67C91.00 7.67 91.25 8.04 91.25 8.74L91.25 11.75C91.25 11.96 91.10 11.97 90.55 11.97L90.38 11.97L90.40 12.42L93.06 12.42L93.06 11.97L92.93 11.97C92.29 11.97 92.23 11.96 92.23 11.73L92.23 9.14C92.23 8.57 92.18 8.13 92.18 8.13C92.18 8.13 92.71 7.67 93.56 7.67C94.14 7.67 94.42 7.85 94.42 8.74L94.42 11.63C94.42 11.97 94.32 11.97 93.59 11.97L93.59 12.42L96.31 12.42L96.31 11.97L96.17 11.97C95.47 11.97 95.40 11.96 95.40 11.62L95.40 8.74C95.40 7.97 95.31 6.89 94.05 6.89C93.32 6.89 92.55 7.45 92.11 7.78C92.08 7.69 91.85 6.89 91.01 6.89C90.09 6.89 89.26 7.67 89.04 7.80C89.04 7.25 89.07 6.78 89.07 6.78C89.07 6.78 87.71 7.08 87.11 7.17ZM96.92 11.51C96.92 12.26 97.62 12.57 98.21 12.57C98.83 12.57 99.48 12.17 99.85 11.68C100.14 12.04 100.30 12.31 100.79 12.66C100.83 12.64 101.30 12.36 101.63 12.15C101.72 12.10 101.75 12.04 101.75 12.00C101.75 11.96 101.72 11.91 101.63 11.89C100.81 11.66 100.72 11.21 100.72 10.61L100.72 7.99C100.72 6.97 99.81 6.87 99.48 6.87C97.47 6.87 97.03 8.13 97.03 8.44C97.03 8.61 97.08 8.95 97.36 8.95C97.47 8.95 97.80 8.81 97.80 8.58C97.80 8.43 97.72 8.22 97.66 7.97C97.66 7.97 97.82 7.53 98.80 7.53C99.65 7.53 99.74 7.98 99.74 8.53L99.74 9.37C98.15 9.37 96.92 10.36 96.92 11.51ZM97.90 11.10C97.90 10.49 98.57 9.74 99.74 9.74L99.74 11.05C99.74 11.35 99.57 11.82 98.74 11.82C98.13 11.82 97.90 11.48 97.90 11.10ZM102.20 9.87C102.20 11.17 102.73 12.60 104.83 12.60C105.99 12.60 107.16 11.84 107.16 11.55C107.16 11.49 107.13 11.42 107.04 11.42C106.83 11.42 106.51 11.76 105.24 11.76C104.38 11.76 103.19 11.24 103.19 9.53C103.19 8.76 103.46 7.36 104.52 7.36C105.14 7.36 105.62 8.15 106.06 8.15C106.18 8.15 106.92 8.02 106.92 7.73C106.92 7.52 106.09 6.80 104.78 6.80C103.08 6.80 102.20 8.36 102.20 9.87ZM107.77 9.86C107.77 10.93 108.36 12.60 110.33 12.60C111.85 12.60 112.88 11.42 112.88 11.16C112.88 11.03 112.83 10.99 112.76 10.99C112.52 10.99 112.00 11.65 110.89 11.65C109.72 11.65 108.82 10.86 108.82 9.45C108.82 9.38 108.84 9.30 108.84 9.25L112.35 8.83C112.41 8.83 112.57 8.78 112.57 8.62C112.57 8.13 111.78 6.83 110.25 6.83C108.86 6.83 107.77 8.04 107.77 9.86ZM108.86 8.76C109.02 7.84 109.55 7.31 110.11 7.31C110.88 7.31 111.27 8.46 111.27 8.46ZM113.39 7.42C113.58 7.41 113.74 7.38 113.85 7.38C114.04 7.38 114.11 7.43 114.11 7.73L114.11 10.49C114.11 11.55 114.37 12.63 115.77 12.63C116.72 12.63 117.56 11.72 117.56 11.72C117.61 12.07 117.64 12.39 117.66 12.71C118.27 12.54 118.76 12.39 119.38 12.26L119.38 11.82C119.08 11.90 118.87 11.97 118.75 11.97C118.54 11.97 118.50 11.90 118.50 10.86L118.50 6.79C117.73 6.92 117.19 6.99 116.58 7.03L116.62 7.46C116.63 7.45 117.04 7.39 117.24 7.39C117.42 7.39 117.52 7.43 117.52 7.81L117.52 11.23C117.52 11.23 117.19 11.76 116.26 11.76C115.21 11.76 115.09 11.12 115.09 10.29L115.09 6.79C114.39 6.92 113.83 6.96 113.39 7.00ZM119.92 7.59C119.92 7.67 119.97 7.70 120.09 7.70L120.76 7.70L120.76 11.07C120.76 11.90 121.14 12.57 122.14 12.57C122.86 12.57 123.80 12.04 123.80 11.66C123.80 11.62 123.79 11.52 123.70 11.52C123.63 11.52 123.24 11.79 122.68 11.79C122.23 11.79 121.74 11.61 121.74 10.96L121.74 7.70L123.55 7.70L123.63 7.03L121.74 7.03L121.74 5.64C121.74 5.59 121.72 5.54 121.66 5.54C121.58 5.54 121.13 6.19 120.72 6.65C120.40 7.01 119.92 7.49 119.92 7.59ZM125.47 4.10C125.47 4.27 125.80 4.73 126.06 4.73C126.21 4.73 126.66 4.31 126.66 4.12C126.66 3.89 126.21 3.51 126.06 3.51C125.87 3.51 125.47 3.88 125.47 4.10ZM124.42 7.15L124.43 7.57C124.87 7.49 125.13 7.46 125.20 7.46C125.36 7.46 125.41 7.55 125.41 7.91L125.41 11.65C125.41 11.94 125.30 11.97 124.60 11.97L124.47 11.97L124.47 12.42L127.51 12.42L127.51 11.97L127.26 11.97C126.43 11.97 126.39 11.93 126.39 11.59L126.39 6.73C125.62 6.94 125.03 7.06 124.42 7.15ZM128.09 9.87C128.09 11.17 128.62 12.60 130.72 12.60C131.88 12.60 133.04 11.84 133.04 11.55C133.04 11.49 133.01 11.42 132.93 11.42C132.72 11.42 132.40 11.76 131.12 11.76C130.27 11.76 129.08 11.24 129.08 9.53C129.08 8.76 129.35 7.36 130.41 7.36C131.03 7.36 131.50 8.15 131.95 8.15C132.06 8.15 132.80 8.02 132.80 7.73C132.80 7.52 131.98 6.80 130.66 6.80C128.97 6.80 128.09 8.36 128.09 9.87ZM133.77 11.51C133.77 12.26 134.47 12.57 135.06 12.57C135.67 12.57 136.33 12.17 136.70 11.68C136.99 12.04 137.14 12.31 137.63 12.66C137.68 12.64 138.15 12.36 138.47 12.15C138.57 12.10 138.60 12.04 138.60 12.00C138.60 11.96 138.57 11.91 138.47 11.89C137.66 11.66 137.56 11.21 137.56 10.61L137.56 7.99C137.56 6.97 136.65 6.87 136.33 6.87C134.32 6.87 133.88 8.13 133.88 8.44C133.88 8.61 133.92 8.95 134.20 8.95C134.32 8.95 134.65 8.81 134.65 8.58C134.65 8.43 134.57 8.22 134.51 7.97C134.51 7.97 134.67 7.53 135.65 7.53C136.50 7.53 136.58 7.98 136.58 8.53L136.58 9.37C135.00 9.37 133.77 10.36 133.77 11.51ZM134.75 11.10C134.75 10.49 135.42 9.74 136.58 9.74L136.58 11.05C136.58 11.35 136.42 11.82 135.59 11.82C134.97 11.82 134.75 11.48 134.75 11.10ZM138.95 2.58L138.98 3.05C139.24 3.00 139.73 2.91 139.78 2.91C140 2.91 140.03 3.02 140.03 3.61L140.03 11.59C140.03 11.94 139.86 11.97 139.40 11.97L139.09 11.97L139.09 12.42L142.14 12.42L142.14 11.97L141.90 11.97C141.16 11.97 141.01 11.94 141.01 11.59L141.01 2.25C140.32 2.38 139.66 2.48 138.95 2.58ZM142.62 10.44L142.87 12.77L143.28 12.74C143.28 12.68 143.26 12.64 143.26 12.60C143.26 12.50 143.29 12.42 143.39 12.42C143.49 12.42 144.12 12.60 144.76 12.60C145.98 12.60 146.58 11.84 146.58 11.02C146.58 10.28 146.01 9.86 145.35 9.41L144.72 8.99C144.30 8.69 143.95 8.48 143.95 8.05C143.95 7.67 144.35 7.38 144.75 7.38C145.61 7.38 146.06 7.84 146.06 7.84L146.08 8.83L146.52 8.83L146.52 6.72L146.08 6.71C146.08 7.00 146.06 7.13 145.95 7.13C145.81 7.13 145.43 6.87 144.73 6.87C143.77 6.87 143.02 7.52 143.02 8.27C143.02 8.99 143.50 9.45 144.07 9.83L144.58 10.16C145.10 10.50 145.54 10.81 145.54 11.33C145.54 11.69 145.29 12.12 144.73 12.12C143.93 12.12 143.19 11.58 143.19 11.58L143.05 10.42Z"></path></g><defs data-v-fde0c5aa=""><linearGradient data-v-fde0c5aa="" gradientTransform="rotate(25)" id="7456426b-a6e0-4109-b569-cda212d45724" x1="0%" y1="0%" x2="100%" y2="0%"><stop data-v-fde0c5aa="" offset="0%" stop-color="#4F7E48" stop-opacity="1"></stop><stop data-v-fde0c5aa="" offset="100%" stop-color="#CAE6A5" stop-opacity="1"></stop></linearGradient></defs><g data-v-fde0c5aa="" id="509ccae2-dfbc-484d-a6a3-373d4ef14806" stroke="none" fill="url(#7456426b-a6e0-4109-b569-cda212d45724)" transform="matrix(0.04006433096206295,0,0,0.04006433096206295,38.218459433012605,139.74353127371188)"><path d="M256 0C139.167 0 44.467 94.708 44.467 211.533 44.467 372.184 256 512 256 512s211.533-139.816 211.533-300.467C467.533 94.708 372.833 0 256 0zm0 375.941c-90.8 0-164.4-73.6-164.4-164.408 0-90.8 73.601-164.408 164.4-164.408s164.417 73.608 164.417 164.408c0 90.809-73.617 164.408-164.417 164.408z"></path><path d="M279.35 131.417L171.583 239.184c-17.283 17.283-17.283 45.3 0 62.583 17.275 17.267 45.292 17.267 62.575 0l107.767-107.783c17.283-17.267 17.283-45.283 0-62.566-17.276-17.285-45.291-17.285-62.575-.001zm48.674 48.666l-53.891 53.883-34.767-34.766 53.893-53.884c9.583-9.583 25.174-9.583 34.766 0 9.583 9.584 9.583 25.184-.001 34.767z"></path></g><!----></svg>